<?xml version="1.0" standalone="no"?><svg xmlns="http://www.w3.org/2000/svg" viewBox="0 0 1440 320"><path fill="#0099ff" fill-opacity="1" d="M0,160L30,176C60,192,120,224,180,208C240,192,300,128,360,128C420,128,480,192,540,192C600,192,660,128,720,122.7C780,117,840,171,900,160C960,149,1020,75,1080,37.3C1140,0,1200,0,1260,42.7C1320,85,1380,171,1410,213.3L1440,256L1440,0L1410,0C1380,0,1320,0,1260,0C1200,0,1140,0,1080,0C1020,0,960,0,900,0C840,0,780,0,720,0C660,0,600,0,540,0C480,0,420,0,360,0C300,0,240,0,180,0C120,0,60,0,30,0L0,0Z"></path></svg>